<mxfile host="app.diagrams.net" modified="2023-11-14T01:38:17.638Z" agent="Mozilla/5.0 (Windows NT 10.0; Win64; x64) AppleWebKit/537.36 (KHTML, like Gecko) Chrome/118.0.0.0 Safari/537.36" version="21.6.6" etag="ljfzify-i7ALpKwiaVNi" type="github">
  <diagram name="Page-1" id="ZsUbfXgmbXWMtFQ5awso">
    <mxGraphModel>
      <root>
        <mxCell id="0" />
        <mxCell id="1" parent="0" />
      </root>
    </mxGraphModel>
  </diagram>
</mxfile>
